<svg xmlns="http://www.w3.org/2000/svg" viewBox="0 0 125.31 137.78"><defs><style>.cls-1{fill:#fff;}</style></defs><g id="Capa_2" data-name="Capa 2"><g id="Capa_1-2" data-name="Capa 1"><path class="cls-1" d="M125.31,68.88q0,28.53,0,57.07c0,4.92-1.73,8.89-6.5,10.85a14.48,14.48,0,0,1-5.4.93q-39.31.09-78.62,0c-7.67,0-11.76-4.17-11.77-11.85,0-12.28-.05-24.57,0-36.86,0-2.21-.57-3-2.85-2.91-5.4.16-10.81.07-16.21,0-3.33,0-4-.6-4-3.85C0,60,0,37.62.06,15.27c0-7.9,3.75-13,10.38-14.63A22.91,22.91,0,0,1,15.92,0Q64.45,0,113,0c3.5,0,6.76.58,9.33,3.26,2.3,2.41,3,5.35,3,8.55ZM23.76,4.63c2.94,3.3,3.68,6.86,3.72,10.64.06,5.62.16,11.24.17,16.87q0,47,0,93.92c0,5.15,2,7.15,7,7.15h78.84c5.24,0,7.15-2,7.15-7.26q0-57,0-113.92c0-5.33-2.05-7.4-7.32-7.4H23.76Zm-.82,41.78h0c0-10.95.07-21.89,0-32.84A9.06,9.06,0,0,0,13.6,4.64a9.23,9.23,0,0,0-9.07,9.07c0,22,0,43.93,0,65.9,0,1.73.64,2.11,2.21,2.08,4.51-.08,9-.13,13.54,0,2.1.07,2.78-.5,2.76-2.68C22.88,68.16,22.94,57.28,22.94,46.41Z"/><path class="cls-1" d="M85.44,46.36H60.56c-.66,0-1.48.21-2-.1-.85-.54-2-1.37-2.08-2.13s1.08-1.69,1.89-2.29c.45-.33,1.29-.15,2-.15h50.19c.37,0,.75,0,1.11,0,1.47.11,2.66.61,2.64,2.34s-1.17,2.29-2.66,2.31c-3.18,0-6.36,0-9.55,0Z"/><path class="cls-1" d="M85.47,120.57c-8.51,0-17,0-25.53,0a4.46,4.46,0,0,1-2.33-.41,2.65,2.65,0,0,1-1.14-1.92,2.55,2.55,0,0,1,1.29-1.83,6.52,6.52,0,0,1,2.8-.42q24.87,0,49.73,0c.45,0,.89,0,1.33,0,1.44.12,2.7.54,2.68,2.3s-1.27,2.29-2.86,2.29Z"/><path class="cls-1" d="M74.12,20.18H49.24c-.59,0-1.18,0-1.77,0-1.38-.06-2.52-.77-2.24-2.12.17-.88,1.26-1.7,2.11-2.29.47-.32,1.3-.16,2-.16H98.83c3,0,4.46.75,4.25,2.37-.34,2.7-2.52,2.2-4.31,2.21Q86.44,20.2,74.12,20.18Z"/><path class="cls-1" d="M85.39,66.51h25.07c.67,0,1.46-.2,2,.1.73.43,1.68,1.17,1.76,1.87a3.09,3.09,0,0,1-1.27,2.25,4.16,4.16,0,0,1-2.35.39q-25.18,0-50.37,0a4,4,0,0,1-2.15-.33c-.7-.49-1.65-1.45-1.55-2.07.12-.79,1.07-1.59,1.86-2.1.47-.31,1.29-.11,2-.11Z"/><path class="cls-1" d="M85.24,91.38h26.17c2.25,0,3.36,1.14,2.83,2.85-.48,1.56-1.79,1.52-3.08,1.52H71.68c-4.14,0-8.28,0-12.42,0-1.52,0-2.79-.44-2.83-2.08s1.21-2.31,2.86-2.3Q72.27,91.4,85.24,91.38Z"/><path class="cls-1" d="M49.43,40c0,1.71,0,3.41,0,5.11a2.43,2.43,0,0,1-2.51,2.78c-3.69.1-7.39.08-11.09,0a2.47,2.47,0,0,1-2.59-2.73c0-3.48-.06-7,0-10.44a2.63,2.63,0,0,1,3-2.83c3.41,0,6.81,0,10.22,0,1.95,0,3,.89,3,3C49.39,36.6,49.43,38.3,49.43,40ZM45.1,40c0-3.54,0-3.54-3.39-3.54-3.85,0-3.87,0-3.84,3.31,0,4-.56,3.71,3.39,3.7C45.65,43.44,45.05,43.89,45.1,40Z"/><path class="cls-1" d="M49.43,114.16c0,1.7,0,3.4,0,5.1a2.47,2.47,0,0,1-2.67,2.84c-3.62.08-7.24.05-10.86,0-1.81,0-2.65-1.16-2.67-2.88,0-3.4-.05-6.8,0-10.2a2.67,2.67,0,0,1,3-3c3.41,0,6.81,0,10.21,0,2,0,3,.94,2.93,3C49.39,110.76,49.43,112.46,49.43,114.16Zm-8,3.49c4,0,3.73.37,3.7-2.92-.05-4.12.85-4.16-3.4-4.17-3.83,0-3.85,0-3.82,3.33C37.91,118,37.29,117.61,41.39,117.65Z"/><path class="cls-1" d="M49.43,89.5v5.1c0,1.88-.88,2.89-2.83,2.88-3.48,0-7,0-10.43,0-1.83,0-2.86-.84-2.9-2.59-.09-3.63-.07-7.25,0-10.87a2.52,2.52,0,0,1,2.65-2.71c3.62-.07,7.24-.08,10.87,0a2.49,2.49,0,0,1,2.66,2.85C49.4,86,49.43,87.72,49.43,89.5Zm-4.33.13c-.05-4,.55-3.73-3.13-3.71-4.53,0-4.1-.57-4.1,3.18,0,4.5-.54,4.05,3.24,4C45.62,93.12,45.05,93.75,45.1,89.63Z"/><path class="cls-1" d="M41.22,72.6c-1.7,0-3.41,0-5.11,0A2.47,2.47,0,0,1,33.27,70c-.09-3.48-.08-7,0-10.43a2.56,2.56,0,0,1,2.94-2.81c3.48.05,7,0,10.43,0,1.94,0,2.84.9,2.82,2.85,0,3.4,0,6.8,0,10.21,0,1.93-1,2.83-2.89,2.82S43,72.6,41.22,72.6Zm.2-4.31c3.95-.05,3.7.49,3.67-3,0-4.68.61-4.29-3-4.27-4.7,0-4.23-.63-4.22,3.26C37.88,68.83,37.3,68.23,41.42,68.29Z"/><path class="cls-1" d="M85.39,62.8c-5.91,0-11.83,0-17.74,0-1.68,0-3.33-.26-3.33-2.32s1.67-2.35,3.33-2.35h35.69c1.7,0,3.33.42,3.25,2.44-.08,1.84-1.6,2.23-3.24,2.22C97.36,62.78,91.37,62.8,85.39,62.8Z"/><path class="cls-1" d="M85.47,83H103c.59,0,1.34-.19,1.73.1.76.57,1.7,1.35,1.81,2.15.09.62-.85,1.6-1.56,2a4.83,4.83,0,0,1-2.37.31q-17.07,0-34.13,0c-3,0-4.39-.78-4.17-2.43C64.62,82.61,66.65,83,68.4,83Z"/><path class="cls-1" d="M85.4,107.82c6,0,12,0,18,0,1.65,0,3.17.28,3.21,2.19s-1.54,2.31-3.14,2.31q-18.09,0-36.19,0c-1.51,0-3-.37-3-2.23s1.47-2.27,3.12-2.26C73.41,107.84,79.41,107.82,85.4,107.82Z"/><path class="cls-1" d="M85.25,38c-6,0-12,0-18,0-1.58,0-2.94-.34-3-2.16s1.31-2.23,2.9-2.22q18.21,0,36.41,0c1.57,0,3,.34,3,2.14S105.12,38,103.46,38C97.39,37.94,91.32,38,85.25,38Z"/></g></g></svg>