<svg xmlns="http://www.w3.org/2000/svg" viewBox="0 0 145.48 110.71"><defs><style>.cls-1{fill:#fff;}</style></defs><g id="Capa_2" data-name="Capa 2"><g id="Capa_1-2" data-name="Capa 1"><path class="cls-1" d="M126.79,100c-.68-1-1.9-1.92-1.86-2.84s1.32-2,2.27-2.29a2,2,0,0,1,2.54,2.23c-.11,1-1.21,1.93-1.87,2.89Z"/><path class="cls-1" d="M113.89,100c-.66-1-1.78-1.86-1.88-2.88-.14-1.42.95-2.4,2.56-2.34s2.51,1,2.3,2.36c-.17,1-1.23,1.92-1.9,2.87Z"/><path class="cls-1" d="M72.74,110.71H10.61c-6.49,0-10.54-4-10.59-10.52C0,98,0,95.88,0,93.73c.1-2.92,1.44-5,4.12-5.66,1.93-.48,2.09-1.51,2.09-3.15,0-24.12.09-48.24-.12-72.36C6.08,6.51,9.88,0,18.59,0Q72,0,125.48,0c7.76,0,12.43,4.8,12.44,12.56q0,36.18,0,72.36c0,1.79.15,2.81,2.43,2.87a5.08,5.08,0,0,1,5,4.86,46.34,46.34,0,0,1-.24,10.4c-.8,4.81-4.64,7.63-9.53,7.63Q104.14,110.73,72.74,110.71Zm-.75-23c19.37,0,38.74,0,58.11,0,2,0,2.68-.43,2.67-2.57-.08-24.26,0-48.52-.05-72.79,0-4.83-2.38-7.17-7.28-7.17H18.79c-5.1,0-7.38,2.22-7.39,7.25,0,24.19,0,48.37-.05,72.56,0,2.17.63,2.74,2.76,2.73C33.4,87.64,52.7,87.67,72,87.67Zm.6,17.88H97.52q18.81,0,37.62,0c3.5,0,5.12-1.69,5.15-5.21,0-1.63-.13-3.28,0-4.89.22-2.15-.68-2.61-2.67-2.6-11.43.08-22.85,0-34.28,0-4.7,0-4.07-.47-4.14,3.95-.06,3.52-2.16,5.81-5.62,5.83q-20.93.07-41.85,0a5.36,5.36,0,0,1-5.41-4.39,16.82,16.82,0,0,1-.08-3.33c.1-1.52-.46-2.08-2-2.08q-18.47.07-36.95,0c-1.5,0-2.2.42-2.09,2s0,3,0,4.45c0,4.91,1.29,6.22,6.15,6.22Zm.19-12.68c-6.44,0-12.88,0-19.33,0-1.72,0-2.4.47-2.33,2.25.05,1.58.3,2.44,2.2,2.43q19.33-.09,38.67,0c1.84,0,2.22-.76,2.25-2.39s-.61-2.31-2.35-2.28C85.53,92.92,79.15,92.87,72.78,92.87Z"/><path class="cls-1" d="M87.05,53.26H54.77c-.66,0-1.5.21-2-.1-.84-.56-1.93-1.4-2-2.22a3.6,3.6,0,0,1,1.56-2.52,4.77,4.77,0,0,1,2.58-.33h64.12c3.11,0,4.6.9,4.53,2.71s-1.37,2.47-4.48,2.47Z"/><path class="cls-1" d="M87.24,63.61H119.3c.66,0,1.5-.23,2,.08.89.62,2,1.46,2.18,2.36.11.71-1,1.86-1.76,2.41a5.06,5.06,0,0,1-2.59.32h-65c-1.78-.06-3.32-.49-3.43-2.64-.09-1.68,1.09-2.54,3.41-2.54Z"/><path class="cls-1" d="M87.09,23.1h32.06c.74,0,1.67-.22,2.18.13.89.61,2.09,1.57,2.11,2.41s-1.17,1.79-2,2.5c-.36.31-1.14.15-1.73.15H54.47c-1.59,0-3.24,0-3.7-2s.67-3.16,2.92-3.18c5-.05,10,0,14.92,0Z"/><path class="cls-1" d="M86.78,78.21H54.73c-.59,0-1.19,0-1.78,0a2.47,2.47,0,0,1-.36-4.86,15.53,15.53,0,0,1,2.64-.25q31.93,0,63.87,0a5.06,5.06,0,0,1,2.59.34c.81.55,1.87,1.7,1.75,2.41-.15.88-1.31,1.71-2.2,2.3-.47.31-1.3.08-2,.08Z"/><path class="cls-1" d="M86.77,18.54q-16.35,0-32.7,0c-1.71,0-3.19-.2-3.4-2.28-.17-1.69.94-2.7,3.25-2.73,4.89-.08,9.79,0,14.68,0h49.61c1,0,2.24-.2,3.06.24a4.34,4.34,0,0,1,2.2,2.52c.19,1.32-.93,2.26-2.44,2.27-2.37,0-4.75,0-7.12,0Z"/><path class="cls-1" d="M87.25,38.66c11,0,22.1,0,33.15.07a4.54,4.54,0,0,1,2.86,1.51c.36.4,0,1.67-.32,2.38a2.6,2.6,0,0,1-1.66.94,14.43,14.43,0,0,1-2.87.19H55.66A19.77,19.77,0,0,1,53,43.61a2.32,2.32,0,0,1-2.29-2.7c.13-1.67,1.16-2.26,2.72-2.25,5.11,0,10.23,0,15.35,0Z"/><path class="cls-1" d="M20.47,45.74c0-2.74,0-5.49,0-8.23,0-2.32.92-3.25,3.22-3.27,5.64,0,11.28,0,16.91,0,1.84,0,3.17.76,3.15,2.64s-1.38,2.53-3.06,2.54c-4.23,0-8.46.1-12.69,0-1.85-.05-2.48.56-2.39,2.4.12,2.89.09,5.79,0,8.68-.05,1.54.49,2.08,2.05,2,4.22-.09,8.45,0,12.68,0,2.23,0,3.54,1,3.4,2.6-.17,1.94-1.54,2.58-3.28,2.58-5.56,0-11.13.05-16.69,0-2.4,0-3.29-1-3.31-3.45C20.45,51.38,20.47,48.56,20.47,45.74Z"/><path class="cls-1" d="M20.48,71c0-2.82,0-5.64,0-8.46,0-2.28.95-3.26,3.25-3.27,5.64,0,11.28,0,16.92,0,1.78,0,3.14.77,3.07,2.71-.07,1.79-1.34,2.48-3.07,2.47-4.23,0-8.46.06-12.69,0-1.68,0-2.43.37-2.35,2.22.14,2.89.14,5.79,0,8.68-.08,1.82.64,2.28,2.34,2.23,3.85-.1,7.71,0,11.57,0,.67,0,1.54-.22,2,.12.89.7,2,1.62,2.18,2.61a2.14,2.14,0,0,1-2.33,2.4c-6.08.06-12.17.08-18.25,0-1.76,0-2.61-1.21-2.6-3Z"/><path class="cls-1" d="M32.08,9.27c2.75,0,5.49,0,8.23,0,2.28,0,3.56.9,3.44,2.52-.15,2.1-1.67,2.62-3.45,2.63-4.08,0-8.16.08-12.24,0-1.78-.05-2.54.45-2.45,2.36.14,2.88.12,5.78,0,8.67-.06,1.69.59,2.15,2.21,2.12,4.22-.09,8.45,0,12.68,0,1.81,0,3.2.58,3.26,2.49s-1.36,2.59-3,2.61c-5.79.06-11.57.08-17.35,0-2,0-3-1.22-3-3.34.07-5.56,0-11.12,0-16.68,0-2.46.86-3.28,3.37-3.3C26.6,9.26,29.34,9.27,32.08,9.27Z"/><path class="cls-1" d="M33.54,70.92c1.62-1.75,3-3.35,4.53-4.89,1.18-1.22,2.59-1.63,3.89-.29s.85,2.72-.33,3.92q-3,3.09-6.12,6.13c-1.46,1.45-3,1.51-4.45,0-1.31-1.31-2.65-2.6-3.9-4a2.32,2.32,0,0,1-.05-3.55,2.5,2.5,0,0,1,3.6,0C31.56,69,32.32,69.77,33.54,70.92Z"/><path class="cls-1" d="M33.49,45.86c1.62-1.72,3.07-3.3,4.57-4.83,1.19-1.23,2.62-1.6,3.9-.31s.87,2.7-.33,3.91l-6.29,6.29a2.6,2.6,0,0,1-4.09,0c-1.39-1.34-2.74-2.71-4.07-4.1a2.31,2.31,0,0,1-.05-3.55,2.45,2.45,0,0,1,3.59,0C31.57,44,32.33,44.77,33.49,45.86Z"/><path class="cls-1" d="M33.51,20.87c1.56-1.67,3-3.24,4.48-4.79,1.17-1.23,2.61-1.67,3.91-.43s.91,2.81-.34,4.07c-2,2-4.08,4.09-6.13,6.12-1.41,1.4-2.83,1.46-4.25,0s-2.71-2.73-4.05-4.12a2.26,2.26,0,0,1,0-3.52,2.32,2.32,0,0,1,3.54,0C31.55,19,32.39,19.8,33.51,20.87Z"/><path class="cls-1" d="M17.67,100c-.66-1-1.78-1.85-1.89-2.86a2,2,0,0,1,2.51-2.26c.95.24,2.25,1.44,2.29,2.27s-1.16,1.9-1.83,2.85Z"/><path class="cls-1" d="M31.77,99.71c-2.35-.19-3.43-1.16-3.11-2.59a3.76,3.76,0,0,1,2.39-2.24,2,2,0,0,1,2.46,2.33C33.37,98.22,32.23,99.09,31.77,99.71Z"/><path class="cls-1" d="M23.88,94.71c2.33.16,3.21,1,3.17,2.59a2.17,2.17,0,0,1-2.39,2.33c-1.6,0-2.64-.94-2.35-2.5C22.5,96.15,23.47,95.31,23.88,94.71Z"/><path class="cls-1" d="M123.32,96.39c-.09,2.38-.91,3.27-2.52,3.24a2.15,2.15,0,0,1-2.33-2.37c0-1.62.89-2.66,2.45-2.39C121.9,95,122.74,96,123.32,96.39Z"/></g></g></svg>